<svg id="SvgjsSvg1087" width="1000" height="1000" xmlns="http://www.w3.org/2000/svg" version="1.1" xmlns:xlink="http://www.w3.org/1999/xlink" xmlns:svgjs="http://svgjs.com/svgjs" overflow="visible"><defs id="SvgjsDefs1088"></defs><g id="SvgjsG1089" class="overview-logo-color" opacity="1"><defs id="SvgjsDefs1072"><linearGradient id="SvgjsLinearGradientOGer2o9V_" gradientUnits="userSpaceOnUse" x1="10.878965586423886" y1="88.00081062316895" x2="89.87420484423637" y2="9.005571365356444"><stop id="SvgjsStop1075" stop-color="#fcb0a5" offset="0.05"></stop><stop id="SvgjsStop1076" stop-color="#f8422a" offset="0.95"></stop></linearGradient></defs><g id="SvgjsG1073" transform="scale(1.2311688311688311)" opacity="1"><g id="SvgjsG1077" class="hD5c9_Dcl" transform="translate(-0.5776368048844425, -29.9571108824222) scale(1.535607362459622)" light-content="false" fill="url(#SvgjsLinearGradientOGer2o9V_)"><path d="M96.897 37.513a3.479 3.479 0 1 0-3.478-3.479c0 .422.079.825.217 1.2l-10.153 8.649-12.864-7.567c.073-.297.116-.607.116-.927a3.878 3.878 0 0 0-3.878-3.878 3.85 3.85 0 0 0-2.314.772L52.92 23.054a2.86 2.86 0 0 0 .086-.684 2.86 2.86 0 1 0-4.998 1.898l-5.835 12.488a4.676 4.676 0 0 0-.8-.074c-.86 0-1.662.239-2.351.647l-15.438-6.915c.036-.225.06-.454.06-.689a4.309 4.309 0 1 0-.963 2.713l14.682 6.576a4.598 4.598 0 0 0-.607 2.284c0 .852.293 1.605.694 2.29l-8.233 8.237a6.847 6.847 0 0 0-4.003-1.294c-2.642 0-4.915 1.501-6.082 3.684l-.096-.032-.005.035-11.478-5.216a3.6 3.6 0 1 0-3.576 3.192 3.584 3.584 0 0 0 2.657-1.177l11.723 5.329c-.005.013-.009.025-.015.037l.056.019c-.054.348-.108.694-.108 1.055a6.9 6.9 0 0 0 2.115 4.975l-.017.013.012.014-5.973 8.802a2.677 2.677 0 1 0 1.82 1.264l5.364-7.904.71-.877a6.88 6.88 0 0 0 2.894.641 6.914 6.914 0 0 0 4.883-2.016l6.993 4.991c-.199.514-.334 1.06-.334 1.641a4.614 4.614 0 1 0 9.088 1.135l15.916-4.923a5.786 5.786 0 0 0 5.099 3.05 5.757 5.757 0 0 0 3.403-1.114l7.12 6.611a3.14 3.14 0 1 0 3.081-2.542 3.12 3.12 0 0 0-1.883.631l-6.811-6.323c.552-.887.893-1.93.893-3.05 0-2.815-1.661-5.16-4.661-5.677V39.104c1-.172 1.082-.478 1.513-.878l13.332 7.848 11.179 15.655c-.092.23-.146.481-.146.745a2.035 2.035 0 1 0 4.072 0 2.038 2.038 0 0 0-2.038-2.037c-.03 0-.06.003-.09.005l-10.73-15.02 9.931-8.459c.54.347 1.182.55 1.872.55zM61.07 62.474c0 .21.013.416.035.62L45.83 67.818a4.613 4.613 0 0 0-4.458-3.435c-1.123 0-2.114.451-2.913 1.113l-7.038-5.022c.447-.92.717-1.93.717-3.017a6.88 6.88 0 0 0-1.29-3.999l8.233-8.237c.686.401 1.438.694 2.291.694a4.605 4.605 0 0 0 3.897-2.147l17.222 14.914a5.768 5.768 0 0 0-1.421 3.792zM66 56.797c-1 .1-1.135.273-1.596.502l-18.36-15.846c.002-.052-.023-.102-.023-.154a4.617 4.617 0 0 0-1.806-3.646l5.799-12.428c.046.002.088.007.134.007.53 0 1.023-.147 1.449-.399l11.621 9.229c-.151.415-.113.861-.113 1.328 0 1.757.895 3.238 2.895 3.715v17.692z"></path></g><g id="SvgjsG1078" class="text" transform="translate(324.0449427249028, 67.0054486701757) scale(1)" light-content="false" fill="#0a0a0a"><path d="M-109.26 -0.71C-108.13 -0.01 -106.53 0.34 -104.46 0.34C-101.84 0.34 -99.9 0.14 -98.64 -0.27L-98.64 -5.95L-101.34 -6.56L-105.4 -12.11C-106.4 -13.37 -107.38 -14.35 -108.35 -15.05C-109.32 -15.75 -110.48 -16.28 -111.83 -16.64L-111.83 -17.25C-108.99 -18.6 -106.81 -20.35 -105.3 -22.49C-103.79 -24.64 -103.04 -27.13 -103.04 -29.97C-103.04 -34.21 -104.56 -37.38 -107.6 -39.48C-110.65 -41.57 -114.97 -42.62 -120.56 -42.62C-126.02 -42.62 -130.77 -41.94 -134.83 -40.59L-134.83 0L-124.75 0L-124.75 -15.02L-122.32 -15.02C-120.92 -14.97 -119.81 -14.74 -119 -14.31C-118.19 -13.88 -117.58 -13.4 -117.18 -12.85C-116.77 -12.31 -116.23 -11.43 -115.55 -10.22L-112.1 -3.92C-111.33 -2.48 -110.39 -1.41 -109.26 -0.71ZM-115.55 -23.21L-124.75 -23.21L-124.75 -33.35C-123.49 -33.62 -122.09 -33.76 -120.56 -33.76C-117.94 -33.76 -116.04 -33.39 -114.84 -32.64C-113.65 -31.9 -113.05 -30.6 -113.05 -28.75C-113.05 -26.27 -113.88 -24.42 -115.55 -23.21Z M-88.9 -0.61L-78.34 0C-77.85 -2.26 -76.9 -6.04 -75.5 -11.37L-61.63 -11.37C-60.46 -6.31 -59.51 -2.53 -58.79 0L-48.24 -0.61C-50.09 -7.64 -52.17 -14.85 -54.49 -22.22C-56.82 -29.6 -59.11 -36.17 -61.36 -41.94L-75.77 -41.94C-78.03 -36.17 -80.32 -29.6 -82.64 -22.22C-84.96 -14.85 -87.05 -7.64 -88.9 -0.61ZM-64.14 -20.36L-73.07 -20.36C-71.76 -24.92 -70.43 -29.07 -69.07 -32.81L-68.06 -32.81C-66.62 -28.57 -65.31 -24.42 -64.14 -20.36Z M-35.38 -40.19L-35.38 0L-25.3 0L-25.3 -11.57L-20.84 -11.57C-14.66 -11.57 -10.06 -12.94 -7.04 -15.7C-4.01 -18.45 -2.5 -22.42 -2.5 -27.6C-2.5 -32.79 -3.98 -36.54 -6.93 -38.87C-9.89 -41.19 -14.39 -42.35 -20.43 -42.35C-23.14 -42.35 -25.8 -42.16 -28.41 -41.78C-31.03 -41.39 -33.35 -40.86 -35.38 -40.19ZM-22.39 -20.77L-25.3 -20.77L-25.3 -32.54C-23.68 -32.9 -21.87 -33.08 -19.89 -33.08C-17.18 -33.08 -15.29 -32.62 -14.21 -31.7C-13.12 -30.77 -12.58 -29.23 -12.58 -27.06C-12.58 -25.03 -12.9 -23.23 -13.53 -21.65C-14.7 -21.29 -15.95 -21.05 -17.29 -20.94C-18.62 -20.83 -20.32 -20.77 -22.39 -20.77Z M10.15 -40.19L10.15 0L20.23 0L20.23 -11.57L24.69 -11.57C30.87 -11.57 35.47 -12.94 38.49 -15.7C41.52 -18.45 43.03 -22.42 43.03 -27.6C43.03 -32.79 41.55 -36.54 38.6 -38.87C35.64 -41.19 31.14 -42.35 25.1 -42.35C22.39 -42.35 19.73 -42.16 17.12 -41.78C14.5 -41.39 12.18 -40.86 10.15 -40.19ZM23.14 -20.77L20.23 -20.77L20.23 -32.54C21.85 -32.9 23.66 -33.08 25.64 -33.08C28.35 -33.08 30.24 -32.62 31.32 -31.7C32.41 -30.77 32.95 -29.23 32.95 -27.06C32.95 -25.03 32.63 -23.23 32 -21.65C30.83 -21.29 29.58 -21.05 28.25 -20.94C26.91 -20.83 25.21 -20.77 23.14 -20.77Z M60.31 -1.25C63.4 0.03 67.79 0.68 73.47 0.68C78.93 0.68 83.6 0.18 87.48 -0.81L86.19 -9.88C82.49 -9.02 78.36 -8.59 73.81 -8.59C70.79 -8.59 68.13 -8.82 65.83 -9.27L65.83 -16.3L83.69 -16.3L83.69 -25.17L65.83 -25.17L65.83 -32.68L87.14 -32.68L87.14 -41.94L55.68 -41.94L55.68 -8.19C55.68 -4.85 57.22 -2.54 60.31 -1.25Z M127.32 -0.71C128.45 -0.01 130.05 0.34 132.13 0.34C134.74 0.34 136.68 0.14 137.94 -0.27L137.94 -5.95L135.24 -6.56L131.18 -12.11C130.19 -13.37 129.21 -14.35 128.24 -15.05C127.27 -15.75 126.11 -16.28 124.75 -16.64L124.75 -17.25C127.59 -18.6 129.77 -20.35 131.28 -22.49C132.79 -24.64 133.55 -27.13 133.55 -29.97C133.55 -34.21 132.03 -37.38 128.98 -39.48C125.94 -41.57 121.62 -42.62 116.03 -42.62C110.57 -42.62 105.81 -41.94 101.75 -40.59L101.75 0L111.83 0L111.83 -15.02L114.27 -15.02C115.66 -14.97 116.77 -14.74 117.58 -14.31C118.39 -13.88 119 -13.4 119.41 -12.85C119.81 -12.31 120.36 -11.43 121.03 -10.22L124.48 -3.92C125.25 -2.48 126.2 -1.41 127.32 -0.71ZM121.03 -23.21L111.83 -23.21L111.83 -33.35C113.09 -33.62 114.49 -33.76 116.03 -33.76C118.64 -33.76 120.55 -33.39 121.74 -32.64C122.94 -31.9 123.53 -30.6 123.53 -28.75C123.53 -26.27 122.7 -24.42 121.03 -23.21Z"></path></g></g></g></svg>